<svg aria-hidden="true" style="position: absolute; width: 0; height: 0; overflow: hidden;" version="1.1" xmlns="http://www.w3.org/2000/svg" xmlns:xlink="http://www.w3.org/1999/xlink">
<defs>
  <symbol viewBox="0 0 100 100" id="icons8-league-of-legends">
    <circle cx="77" cy="13" r="1" fill="#f1bc19"></circle>
    <circle cx="50" cy="50" r="37" fill="#e6edb7"></circle>
    <circle cx="83" cy="15" r="4" fill="#f1bc19"></circle>
    <circle cx="87" cy="24" r="2" fill="#88ae45"></circle>
    <circle cx="81" cy="76" r="2" fill="#fbcd59"></circle>
    <circle cx="15" cy="63" r="4" fill="#fbcd59"></circle>
    <circle cx="25" cy="87" r="2" fill="#88ae45"></circle>
    <circle cx="18.5" cy="51.5" r="2.5" fill="#fff"></circle>
    <circle cx="79.5" cy="33.5" r="1.5" fill="#fff"></circle>
    <path fill="#fbb821" d="M50 28.952c-12.992 0-23.524 10.532-23.524 23.524S37.008 76 50 76s23.524-10.532 23.524-23.524S62.992 28.952 50 28.952z"></path>
    <path fill="#472b29" d="M50 76.7c-13.356 0-24.224-10.867-24.224-24.224S36.644 28.252 50 28.252s24.224 10.867 24.224 24.224S63.356 76.7 50 76.7zm0-47.048c-12.585 0-22.823 10.239-22.823 22.824S37.415 75.3 50 75.3s22.823-10.239 22.823-22.824S62.585 29.652 50 29.652z"></path>
    <path fill="#77cbd2" d="M50 33.905c-10.257 0-18.571 8.315-18.571 18.571S39.743 71.048 50 71.048s18.571-8.315 18.571-18.571c0-9.044-6.464-16.578-15.024-18.233"></path>
    <path fill="#0091ea" d="M61.534 53.878c.222-.039.44-.077.655-.112l.024-.004a58.98 58.98 0 013.627-.482v-.002c.91-.092 1.648-.144 2.159-.173-.015-5.051-1.827-9.643-4.78-13.104-2.922.918-5.248 2.343-6.878 3.565l-.159.119a19.82 19.82 0 00-.827.658c-.095.08-.195.161-.282.236-.197.169-.377.33-.532.473-.712 2.313-2.171 4.801-4.454 7.076a22.47 22.47 0 01-2.562 2.189v8.064s.516-1.008 1.627-2.317c2.273-2.678 5.397-4.497 8.811-5.323l3.571-.863zm-7.195 11.924c-1.486 0-3.326-.567-3.842-2.299A38.688 38.688 0 0046 66.334V68h14.521a19.128 19.128 0 005.252-6.994c-.961-.36-2.921-.877-6.281-.877 1.032 3.28-2.436 5.673-5.153 5.673m3.637-26.984c.368-.196.756-.39 1.162-.577l-.006-.004A20.462 20.462 0 0161 37.481a14.923 14.923 0 00-2.7-1.812c-.973.45-2.19 1.069-3.348 1.818.55.688.836 1.608.861 2.657.213-.15.442-.304.684-.46l.041-.026"></path>
    <path fill="#472b29" d="M55.813 40.27a.128.128 0 01-.057-.013.125.125 0 01-.068-.109c-.024-1.037-.313-1.93-.834-2.582a.124.124 0 01-.025-.098.12.12 0 01.055-.085 27.57 27.57 0 013.363-1.827.122.122 0 01.11.002 15.044 15.044 0 012.723 1.827.124.124 0 01.043.118.127.127 0 01-.082.096c-.599.207-1.194.447-1.818.733a.102.102 0 01-.032.022c-.386.177-.774.37-1.155.574a.125.125 0 11-.117-.22c.372-.199.752-.388 1.13-.563a.102.102 0 01.032-.022 20.558 20.558 0 011.67-.686 14.764 14.764 0 00-2.453-1.628 27.522 27.522 0 00-3.163 1.711c.466.632.738 1.453.795 2.393.16-.109.327-.221.501-.332l.044-.028a.125.125 0 01.171.042.124.124 0 01-.042.172l-.038.024c-.239.154-.468.307-.679.457a.142.142 0 01-.074.022z"></path>
    <path fill="#472b29" d="M50 71.548c-10.516 0-19.071-8.556-19.071-19.072S39.484 33.405 50 33.405a.5.5 0 010 1c-9.965 0-18.071 8.107-18.071 18.071 0 9.965 8.106 18.072 18.071 18.072s18.071-8.107 18.071-18.072c0-8.643-6.148-16.104-14.619-17.742a.5.5 0 11.19-.981c8.94 1.729 15.43 9.603 15.43 18.724C69.071 62.992 60.516 71.548 50 71.548z"></path>
    <path fill="#472b29" d="M47.523 62.506a.125.125 0 01-.125-.125v-8.063c0-.04.019-.077.051-.101a22.536 22.536 0 002.549-2.177c2.133-2.125 3.662-4.553 4.423-7.024a.13.13 0 01.034-.055c.156-.145.338-.306.535-.476.063-.054.133-.111.202-.168l.083-.069a18.517 18.517 0 01.831-.662l.16-.12c2.151-1.613 4.479-2.819 6.916-3.584a.125.125 0 01.132.038c3.088 3.619 4.796 8.302 4.811 13.185a.125.125 0 01-.118.125c-.66.037-1.396.096-2.132.17l-.021.004a59.879 59.879 0 00-4.233.585c-.069.014-.133-.034-.145-.102s.033-.133.102-.145l.592-.101a59.876 59.876 0 013.638-.485l.021-.004c.713-.072 1.4-.128 2.046-.167-.04-4.753-1.705-9.306-4.695-12.842-2.382.759-4.656 1.943-6.762 3.521l-.159.119a19.01 19.01 0 00-.822.655l-.084.07c-.068.056-.136.112-.197.165-.186.16-.356.311-.505.447-.775 2.5-2.323 4.952-4.476 7.096a22.731 22.731 0 01-2.525 2.164v7.53a15.44 15.44 0 011.407-1.928c1.956-2.304 4.584-4.035 7.603-5.005a.126.126 0 01.157.081.126.126 0 01-.081.157c-2.974.957-5.563 2.661-7.487 4.929-1.088 1.281-1.607 2.283-1.612 2.293a.132.132 0 01-.114.069z"></path>
    <path fill="#472b29" d="M57.963 54.866a.125.125 0 01-.121-.096.124.124 0 01.092-.151l1.08-.261a.125.125 0 01.058.243l-1.08.261a.097.097 0 01-.029.004zm-2.241 10.872a.125.125 0 01-.032-.246c.338-.09.673-.211.996-.359a.124.124 0 01.165.062.125.125 0 01-.061.166 6.48 6.48 0 01-1.036.373.122.122 0 01-.032.004z"></path>
    <path fill="#472b29" d="M60.521 68.125H46a.125.125 0 01-.125-.125v-1.667c0-.04.02-.078.052-.101a38.547 38.547 0 014.512-2.84.127.127 0 01.106-.005.12.12 0 01.072.08c.485 1.629 2.241 2.21 3.723 2.21a.125.125 0 010 .25c-1.527 0-3.334-.593-3.915-2.244a38.587 38.587 0 00-4.3 2.714v1.478h14.351a19.127 19.127 0 005.13-6.797c-1.065-.379-2.932-.808-5.946-.823.611 2.238-.817 3.973-2.39 4.861a.124.124 0 01-.17-.047.124.124 0 01.047-.17c1.524-.861 2.91-2.556 2.227-4.731a.122.122 0 01.019-.111.125.125 0 01.101-.051c3.272 0 5.246.481 6.325.885a.125.125 0 01.07.167c-1.168 2.682-2.996 5.116-5.286 7.04a.141.141 0 01-.082.027z"></path>
    <path fill="#fcc938" d="M32.667 24h14.857v44.571h24.762L66.095 76H32.667l3.714-4.952V28.952L32.667 24z"></path>
    <path fill="#472b29" d="M66.096 76.7H32.667a.699.699 0 01-.56-1.12l3.573-4.766V29.186l-3.573-4.766a.699.699 0 01.56-1.12h14.856a.7.7 0 01.7.7v43.871h24.063a.7.7 0 01.538 1.148l-6.19 7.429a.7.7 0 01-.538.252zm-32.029-1.4h31.7l5.024-6.028H47.523a.7.7 0 01-.7-.7V24.7H34.067l2.873 3.832a.694.694 0 01.141.42v42.096a.694.694 0 01-.141.42L34.067 75.3z"></path>
  </symbol>
  </defs>
</svg>